<?xml version="1.0" encoding="UTF-8"?>
<svg width="323px" height="166px" viewBox="0 0 323 166" version="1.1" xmlns="http://www.w3.org/2000/svg" xmlns:xlink="http://www.w3.org/1999/xlink">
    <title>Logo_TV5MONDE_Asie_blanc</title>
    <defs>
        <polygon id="path-1" points="0 499.937495 499.937495 499.937495 499.937495 0 0 0"></polygon>
    </defs>
    <g id="Page-1" stroke="none" stroke-width="1" fill="none" fill-rule="evenodd">
        <g id="Logo_TV5MONDE_Asie_blanc" transform="translate(-58.000000, -160.000000)">
            <g id="g10" transform="translate(249.968748, 249.968766) scale(-1, 1) rotate(-180.000000) translate(-249.968748, -249.968766) translate(0.000000, 0.000019)">
                <g id="g12" transform="translate(343.060384, 229.516830)" fill="#FFFFFF" fill-rule="nonzero">
                    <polygon id="path14" points="0 54.7431557 0 0.0444944371 37.3313327 0.0444944371 37.3313327 14.9908758 20.0052488 14.9908758 20.0052488 20.3652038 35.3013365 20.3652038 35.3013365 34.5776769 20.0052488 34.5776769 20.0052488 39.8060233 36.7484055 39.8060233 36.7484055 54.7431557"></polygon>
                </g>
                <g id="g16" transform="translate(228.152625, 229.447988)" fill="#FFFFFF" fill-rule="nonzero">
                    <polygon id="path18" points="35.9954997 24.4969373 19.2375948 54.8121471 0.178477686 54.8121471 0.178477686 0.112485936 19.2270961 0.112485936 19.2218468 28.8443937 35.9862508 0.112485936 54.9751267 0.112485936 54.9751267 54.8121471 35.9862508 54.8121471"></polygon>
                </g>
                <g id="g20" transform="translate(58.662091, 229.483284)" fill="#FFFFFF" fill-rule="nonzero">
                    <path d="M78.240218,109.486311 L69.1731016,78.5429302 L60.011747,109.486311 L0.124484436,109.486311 L0.124484436,92.1854745 L12.8763901,92.1854745 L12.8763901,54.7771515 L33.4448186,54.7771515 L33.4448186,92.2834623 L45.6602913,92.2834623 L60.011747,54.7771515 L40.9208839,54.7771515 L32.0799892,0.0774903118 L51.2838382,0.0774903118 L54.1139844,30.0439937 L63.3985736,0.0774903118 L74.992624,0.0774903118 L84.2677144,30.0439937 L86.9523788,0.0774903118 L106.162477,0.0774903118 L97.1708512,54.7771515 L78.240218,54.7771515 L99.2525909,109.486311 L78.240218,109.486311 Z M60.011747,54.7771515 L78.240218,54.7771515 L69.1743515,31.0643662 L60.011747,54.7771515 Z" id="path22"></path>
                </g>
                <g id="g26-Clipped">
                    <mask id="mask-2" fill="white">
                        <use xlink:href="#path-1"></use>
                    </mask>
                    <g id="path28"></g>
                    <g id="g26" mask="url(#mask-2)">
                        <g transform="translate(89.988749, 173.728280)">
                            <g id="g32" stroke-width="1" fill="none" fill-rule="evenodd" transform="translate(197.147227, 55.730082)">
                                <path d="M21.2473436,16.4979373 L20.0124979,16.4979373 L20.0124979,37.6757896 L21.2473436,37.6757896 C28.4951874,37.6757896 32.9116352,34.4149473 32.9116352,26.7376571 C32.9116352,19.5428067 27.8407692,16.4979373 21.2473436,16.4979373 M20.3807019,54.8016484 L0.148981374,54.8016484 L0.148981374,0.103237093 L25.3033365,0.103237093 C41.3215838,0.103237093 52.7739019,10.4119482 52.7739019,26.6541676 C52.7739019,46.7536546 38.7139098,54.8016484 20.3807019,54.8016484" id="path34" fill="#FFFFFF" fill-rule="nonzero"></path>
                            </g>
                            <g id="g36" stroke-width="1" fill="none" fill-rule="evenodd" transform="translate(62.948430, 53.307410)">
                                <path d="M41.7447809,59.7425307 C41.1538547,59.7425307 40.567928,59.724033 39.9865007,59.6895373 C46.1782266,62.3594535 51.3565791,67.1721018 51.9062604,75.8270197 C52.6074228,87.1163583 40.5641785,92.933131 33.8262709,92.933131 C25.3898256,92.933131 22.0652413,90.8328936 22.0652413,90.8328936 L23.1983496,96.5901738 L48.3844507,96.5901738 L48.3844507,111.932756 L8.60192454,111.932756 L3.231346,79.4073221 C3.231346,79.4073221 9.7252841,81.2278445 16.3942003,81.6360435 C23.4235715,82.0532413 30.5786769,80.3956985 30.3984494,75.7620279 C30.2447187,71.7830253 21.67579,69.8140215 14.8823893,71.2053476 C8.47319064,72.513184 2.64841888,75.1883496 2.64841888,75.1883496 L0.230221217,60.6779137 C0.230221217,60.6779137 13.1663539,56.2019733 22.611423,56.4311947 C24.4531927,56.476439 26.6486683,56.5996736 28.9978745,56.8911372 C18.883889,52.1089851 11.885264,41.8135223 11.885264,29.8830139 C11.885264,13.3930755 25.2548425,0.024746906 41.7447809,0.024746906 C58.235969,0.024746906 71.6042977,13.3930755 71.6042977,29.8830139 C71.6042977,46.374452 58.235969,59.7425307 41.7447809,59.7425307 M41.7447809,18.5249339 C35.4720651,18.5249339 30.3867009,23.6102981 30.3867009,29.8830139 C30.3867009,36.1557296 35.4720651,41.2410938 41.7447809,41.2410938 C48.0174966,41.2410938 53.1028608,36.1557296 53.1028608,29.8830139 C53.1028608,23.6102981 48.0174966,18.5249339 41.7447809,18.5249339" id="path38" fill="#FFFFFF" fill-rule="nonzero"></path>
                            </g>
                            <polygon id="path40" fill="#FFFFFF" fill-rule="nonzero" points="83.50306 0.378202715 79.9025102 0.378202715 79.9025102 38.191975 83.50306 38.191975"></polygon>
                            <g id="g42" stroke-width="1" fill="none" fill-rule="evenodd" transform="translate(96.691161, 0.196275)">
                                <polygon id="path44" fill="#FFFFFF" fill-rule="nonzero" points="26.2467185 37.9952496 26.2467185 34.9228838 3.7392825 34.9228838 3.7392825 21.2585921 24.8166473 21.2585921 24.8166473 18.1877261 3.7392825 18.1877261 3.7392825 3.25334325 26.5116854 3.25334325 26.5116854 0.181227342 0.137482811 0.181227342 0.137482811 37.9952496"></polygon>
                            </g>
                            <g id="g46" stroke-width="1" fill="none" fill-rule="evenodd" transform="translate(0.196275, 0.196275)">
                                <path d="M19.4975623,37.9952496 L34.3259584,0.181227342 L30.4594418,0.181227342 L25.8522678,11.9387574 L8.64041973,11.9387574 L4.08648909,0.181227342 L0.219722529,0.181227342 L15.4733154,37.9952496 L19.4975623,37.9952496 Z M9.75278066,15.0108733 L24.6341701,15.0108733 L17.3258338,34.39345 L9.75278066,15.0108733 Z" id="path48" fill="#FFFFFF" fill-rule="nonzero"></path>
                            </g>
                            <g id="g50" stroke-width="1" fill="none" fill-rule="evenodd" transform="translate(41.078489, 0.412798)">
                                <path d="M27.2465935,26.4966873 L23.795025,26.4966873 C23.5428066,31.8750148 19.2285959,34.8176469 13.8490185,34.8176469 C8.92763382,34.8176469 4.81639783,32.7881507 4.81639783,27.6130477 C4.81639783,23.8582671 7.86351686,22.691413 9.89301313,22.1827266 L18.7214094,20.0024992 C25.723034,18.275965 28.5149349,15.180852 28.5149349,10.3594548 C28.5149349,6.80789884 26.586926,0.00899887492 14.660917,0.00899887492 C5.73128345,0.00899887492 0.199225092,4.11898502 0.199225092,11.781527 L0.199225092,12.6949128 L3.65079356,12.6949128 L3.65079356,12.3904509 C3.65079356,5.74403185 8.16647899,2.95188094 15.372828,2.95188094 C19.483814,2.95188094 25.0633665,5.13510798 25.0633665,10.310211 C25.0633665,13.6067988 22.5266836,15.6377949 17.8065237,16.804649 L9.53630772,18.8341453 C4.1567303,20.1532303 1.36782899,22.691413 1.36782899,27.5608042 C1.36782899,31.6720402 4.20772393,37.7617788 13.8012745,37.7617788 C21.4625666,37.7617788 27.2465935,33.6522926 27.2465935,26.4966873" id="path52" fill="#FFFFFF" fill-rule="nonzero"></path>
                            </g>
                        </g>
                    </g>
                </g>
            </g>
        </g>
    </g>
</svg>