<?xml version="1.0" encoding="UTF-8"?>
<svg width="323px" height="166px" viewBox="0 0 323 166" version="1.1" xmlns="http://www.w3.org/2000/svg" xmlns:xlink="http://www.w3.org/1999/xlink">
    <title>Logo_TV5MONDE_Pacifique_blanc</title>
    <defs>
        <polygon id="path-1" points="0 499.937495 499.937495 499.937495 499.937495 0 0 0"></polygon>
    </defs>
    <g id="Page-1" stroke="none" stroke-width="1" fill="none" fill-rule="evenodd">
        <g id="Logo_TV5MONDE_Pacifique_blanc" transform="translate(-58.000000, -160.000000)">
            <g id="g10" transform="translate(249.968748, 249.968766) scale(-1, 1) rotate(-180.000000) translate(-249.968748, -249.968766) translate(0.000000, 0.000019)">
                <g id="g12" transform="translate(343.060384, 229.516830)" fill="#FFFFFF" fill-rule="nonzero">
                    <polygon id="path14" points="0 54.7431557 0 0.0444944371 37.3313327 0.0444944371 37.3313327 14.9908758 20.0052488 14.9908758 20.0052488 20.3652038 35.3013365 20.3652038 35.3013365 34.5776769 20.0052488 34.5776769 20.0052488 39.8060233 36.7484055 39.8060233 36.7484055 54.7431557"></polygon>
                </g>
                <g id="g16" transform="translate(228.152625, 229.447988)" fill="#FFFFFF" fill-rule="nonzero">
                    <polygon id="path18" points="35.9954997 24.4969373 19.2375948 54.8121471 0.178477686 54.8121471 0.178477686 0.112485936 19.2270961 0.112485936 19.2218468 28.8443937 35.9862508 0.112485936 54.9751267 0.112485936 54.9751267 54.8121471 35.9862508 54.8121471"></polygon>
                </g>
                <g id="g20" transform="translate(58.662091, 229.483284)" fill="#FFFFFF" fill-rule="nonzero">
                    <path d="M78.240218,109.486311 L69.1731016,78.5429302 L60.011747,109.486311 L0.124484436,109.486311 L0.124484436,92.1854745 L12.8763901,92.1854745 L12.8763901,54.7771515 L33.4448186,54.7771515 L33.4448186,92.2834623 L45.6602913,92.2834623 L60.011747,54.7771515 L40.9208839,54.7771515 L32.0799892,0.0774903118 L51.2838382,0.0774903118 L54.1139844,30.0439937 L63.3985736,0.0774903118 L74.992624,0.0774903118 L84.2677144,30.0439937 L86.9523788,0.0774903118 L106.162477,0.0774903118 L97.1708512,54.7771515 L78.240218,54.7771515 L99.2525909,109.486311 L78.240218,109.486311 Z M60.011747,54.7771515 L78.240218,54.7771515 L69.1743515,31.0643662 L60.011747,54.7771515 Z" id="path22"></path>
                </g>
                <g id="g26-Clipped">
                    <mask id="mask-2" fill="white">
                        <use xlink:href="#path-1"></use>
                    </mask>
                    <g id="path28"></g>
                    <g id="g26" mask="url(#mask-2)">
                        <g transform="translate(92.738405, 173.728280)">
                            <g id="g32" stroke-width="1" fill="none" fill-rule="evenodd" transform="translate(194.397570, 55.730082)">
                                <path d="M21.2473436,16.4979373 L20.0124979,16.4979373 L20.0124979,37.6757896 L21.2473436,37.6757896 C28.4951874,37.6757896 32.9116352,34.4149473 32.9116352,26.7376571 C32.9116352,19.5428067 27.8407692,16.4979373 21.2473436,16.4979373 M20.3807019,54.8016484 L0.148981374,54.8016484 L0.148981374,0.103237093 L25.3033365,0.103237093 C41.3215838,0.103237093 52.7739019,10.4119482 52.7739019,26.6541676 C52.7739019,46.7536546 38.7139098,54.8016484 20.3807019,54.8016484" id="path34" fill="#FFFFFF" fill-rule="nonzero"></path>
                            </g>
                            <g id="g36" stroke-width="1" fill="none" fill-rule="evenodd" transform="translate(60.198774, 53.307410)">
                                <path d="M41.7447809,59.7425307 C41.1538547,59.7425307 40.567928,59.724033 39.9865007,59.6895373 C46.1782266,62.3594535 51.3565791,67.1721018 51.9062604,75.8270197 C52.6074228,87.1163583 40.5641785,92.933131 33.8262709,92.933131 C25.3898256,92.933131 22.0652413,90.8328936 22.0652413,90.8328936 L23.1983496,96.5901738 L48.3844507,96.5901738 L48.3844507,111.932756 L8.60192454,111.932756 L3.231346,79.4073221 C3.231346,79.4073221 9.7252841,81.2278445 16.3942003,81.6360435 C23.4235715,82.0532413 30.5786769,80.3956985 30.3984494,75.7620279 C30.2447187,71.7830253 21.67579,69.8140215 14.8823893,71.2053476 C8.47319064,72.513184 2.64841888,75.1883496 2.64841888,75.1883496 L0.230221217,60.6779137 C0.230221217,60.6779137 13.1663539,56.2019733 22.611423,56.4311947 C24.4531927,56.476439 26.6486683,56.5996736 28.9978745,56.8911372 C18.883889,52.1089851 11.885264,41.8135223 11.885264,29.8830139 C11.885264,13.3930755 25.2548425,0.024746906 41.7447809,0.024746906 C58.235969,0.024746906 71.6042977,13.3930755 71.6042977,29.8830139 C71.6042977,46.374452 58.235969,59.7425307 41.7447809,59.7425307 M41.7447809,18.5249339 C35.4720651,18.5249339 30.3867009,23.6102981 30.3867009,29.8830139 C30.3867009,36.1557296 35.4720651,41.2410938 41.7447809,41.2410938 C48.0174966,41.2410938 53.1028608,36.1557296 53.1028608,29.8830139 C53.1028608,23.6102981 48.0174966,18.5249339 41.7447809,18.5249339" id="path38" fill="#FFFFFF" fill-rule="nonzero"></path>
                            </g>
                            <g id="g40" stroke-width="1" fill="none" fill-rule="evenodd" transform="translate(32.607973, 2.402300)">
                                <path d="M18.2477186,35.7455309 L32.1879757,0.198225217 L28.55393,0.198225217 L24.2212217,11.2508434 L8.04049474,11.2508434 L3.75928,0.198225217 L0.125234343,0.198225217 L14.4644416,35.7455309 L18.2477186,35.7455309 Z M9.08686391,14.1384823 L23.0771148,14.1384823 L16.2067238,32.3599542 L9.08686391,14.1384823 Z" id="path42" fill="#FFFFFF" fill-rule="nonzero"></path>
                            </g>
                            <polygon id="path44" fill="#FFFFFF" fill-rule="nonzero" points="116.679162 2.59942501 113.293585 2.59942501 113.293585 38.1469807 116.679162 38.1469807"></polygon>
                            <g id="g46" stroke-width="1" fill="none" fill-rule="evenodd" transform="translate(128.882087, 2.402300)">
                                <polygon id="path48" fill="#FFFFFF" fill-rule="nonzero" points="22.747156 35.7455309 22.747156 32.8578919 3.57830262 32.8578919 3.57830262 20.0139977 20.6059237 20.0139977 20.6059237 17.1251089 3.57830262 17.1251089 3.57830262 0.198225217 0.193975748 0.198225217 0.193975748 35.7455309"></polygon>
                            </g>
                            <polygon id="path50" fill="#FFFFFF" fill-rule="nonzero" points="164.425943 2.59942501 161.040366 2.59942501 161.040366 38.1469807 164.425943 38.1469807"></polygon>
                            <g id="g52" stroke-width="1" fill="none" fill-rule="evenodd" transform="translate(257.579121, 2.402300)">
                                <polygon id="path54" fill="#FFFFFF" fill-rule="nonzero" points="24.746906 35.7455309 24.746906 32.8578919 3.58755147 32.8578919 3.58755147 20.0139977 23.4020742 20.0139977 23.4020742 17.1251089 3.58755147 17.1251089 3.58755147 3.08586419 24.995125 3.08586419 24.995125 0.198225217 0.202974623 0.198225217 0.202974623 35.7455309"></polygon>
                            </g>
                            <g id="g56" stroke-width="1" fill="none" fill-rule="evenodd" transform="translate(218.234440, 1.652393)">
                                <path d="M3.49956247,36.4954372 L3.49956247,14.4406946 C3.49956247,7.27159087 6.43744516,3.08911378 13.9047616,3.08911378 C21.0751151,3.08911378 24.3604543,6.82239703 24.3604543,14.4906883 L24.3604543,36.4954372 L27.7447812,36.4954372 L27.7447812,13.8435192 C27.7447812,5.52905873 23.0156225,0.200474936 13.9047616,0.200474936 C4.59467555,0.200474936 0.11373578,5.82652154 0.11373578,13.8435192 L0.11373578,36.4954372 L3.49956247,36.4954372 Z" id="path58" fill="#FFFFFF" fill-rule="nonzero"></path>
                            </g>
                            <g id="g60" stroke-width="1" fill="none" fill-rule="evenodd" transform="translate(174.691784, 0.126459)">
                                <path d="M33.7457809,20.2474686 C33.7457809,14.2224718 31.6547924,9.29558782 28.3694531,6.1579801 L33.4460684,2.27571548 L31.75378,0.184476936 L26.2282208,4.36695402 C23.7882759,2.62317204 20.7514056,1.7260342 17.0168725,1.7260342 C5.91551041,1.7260342 0.239220092,10.3402072 0.239220092,20.2474686 C0.239220092,30.3544549 6.11373563,38.7691529 17.0168725,38.7691529 C27.9202593,38.7691529 33.7457809,30.3039612 33.7457809,20.2474686 M17.0168725,4.61517299 C19.5570549,4.61517299 21.747531,5.21234833 23.5903006,6.35770513 L18.9098858,9.89226322 L20.6524179,12.0324956 L25.8292707,8.09973733 C28.8673909,10.9876263 30.3602042,15.3690785 30.3602042,20.2474686 C30.3602042,28.1642288 26.3272084,35.8812639 16.9681286,35.8812639 C8.00649899,35.8812639 3.62504678,28.5129352 3.62504678,20.2474686 C3.62504678,12.381202 7.65804255,4.61517299 17.0168725,4.61517299" id="path62" fill="#FFFFFF" fill-rule="nonzero"></path>
                            </g>
                            <g id="g64" stroke-width="1" fill="none" fill-rule="evenodd" transform="translate(71.140631, 1.647494)">
                                <path d="M31.2460935,25.746781 L27.8605167,25.746781 C26.6649162,31.1733526 22.1854763,34.3607041 16.9583798,34.3607041 C7.64829377,34.3607041 3.56505428,26.6436689 3.56505428,18.7271586 C3.56505428,11.1088611 7.4473189,3.0946131 16.9583798,3.0946131 C23.1301082,3.0946131 27.6610417,7.7232844 28.3584545,14.4944378 L31.7440312,14.4944378 C30.7981495,5.5333082 25.0718654,0.205474311 16.9583798,0.205474311 C5.90451179,0.205474311 0.179227592,8.76815376 0.179227592,18.7271586 C0.179227592,28.3847012 5.65604285,37.2470932 16.9583798,37.2470932 C23.9280084,37.2470932 30.3492056,32.9658784 31.2460935,25.746781" id="path66" fill="#FFFFFF" fill-rule="nonzero"></path>
                            </g>
                            <g id="g68" stroke-width="1" fill="none" fill-rule="evenodd" transform="translate(0.155006, 2.402300)">
                                <path d="M15.9979999,35.7455309 C22.1219842,35.7455309 26.5024365,32.2104729 26.5024365,25.5898006 C26.5024365,18.8186472 21.9212593,15.4328205 15.9979999,15.4328205 L3.55055609,15.4328205 L3.55055609,0.198225217 L0.166229217,0.198225217 L0.166229217,35.7455309 L15.9979999,35.7455309 Z M15.2515932,18.3207095 C19.8802645,18.3207095 23.1168598,20.6111731 23.1168598,25.5898006 C23.1168598,30.0204967 20.5289334,32.8578919 15.1498559,32.8578919 L3.55055609,32.8578919 L3.55055609,18.3207095 L15.2515932,18.3207095 Z" id="path70" fill="#FFFFFF" fill-rule="nonzero"></path>
                            </g>
                        </g>
                    </g>
                </g>
            </g>
        </g>
    </g>
</svg>